<svg width="126" height="24" viewBox="0 0 126 24" fill="none" xmlns="http://www.w3.org/2000/svg">
<path d="M8.10556 5.70077C7.29428 5.71526 6.5989 5.87461 6.01941 6.17884C5.43992 6.48308 4.96185 6.88872 4.58518 7.39577C4.223 7.90282 3.95499 8.49679 3.78114 9.17769C3.6073 9.8441 3.52038 10.554 3.52038 11.3073C3.52038 12.0606 3.6073 12.7777 3.78114 13.4586C3.96948 14.1251 4.25198 14.719 4.62864 15.2406C5.0198 15.7476 5.51236 16.1533 6.10633 16.4575C6.70031 16.7472 7.40293 16.8921 8.21421 16.8921C9.53255 16.8921 10.5539 16.5517 11.2782 15.8708C12.0171 15.1754 12.401 14.2772 12.43 13.1761H7.93172V11.0465H14.8421C14.8421 11.597 14.8276 12.1548 14.7986 12.7198C14.7841 13.2703 14.7045 13.8498 14.5596 14.4583C14.3857 15.1102 14.1322 15.7259 13.799 16.3054C13.4658 16.8704 13.0384 17.3629 12.5169 17.7831C11.9954 18.2032 11.3724 18.5364 10.6481 18.7827C9.93819 19.029 9.11966 19.1521 8.19248 19.1521C6.99005 19.1521 5.93249 18.9638 5.0198 18.5871C4.12159 18.1959 3.36826 17.6527 2.7598 16.9573C2.15134 16.2619 1.69499 15.4361 1.39076 14.48C1.08653 13.5238 0.934418 12.4808 0.934418 11.3508C0.934418 10.2063 1.08653 9.14871 1.39076 8.17807C1.69499 7.20743 2.1441 6.37442 2.73807 5.67904C3.34653 4.96917 4.09986 4.41866 4.99807 4.0275C5.91076 3.63635 6.96832 3.44077 8.17075 3.44077C9.01101 3.44077 9.78607 3.54943 10.4959 3.76673C11.2203 3.96955 11.8577 4.27378 12.4082 4.67942C12.9588 5.07058 13.4151 5.56314 13.7773 6.15711C14.1395 6.7366 14.3785 7.40301 14.4944 8.15634H11.9519C11.7636 7.38852 11.3217 6.7873 10.6263 6.35269C9.94543 5.91808 9.10518 5.70077 8.10556 5.70077Z" fill="white"/>
<path d="M17.1148 19V7.54788H19.44L19.5704 9.17769C20.4541 7.96077 21.6565 7.3523 23.1777 7.3523C23.3226 7.3523 23.4602 7.35955 23.5906 7.37404C23.7354 7.37404 23.8658 7.38128 23.9817 7.39577V9.69922C23.8079 9.69922 23.634 9.70647 23.4602 9.72096C23.3008 9.72096 23.1415 9.72096 22.9821 9.72096C22.3447 9.73544 21.8087 9.85134 21.374 10.0686C20.9539 10.2715 20.6062 10.5467 20.331 10.8944C20.0702 11.2421 19.8819 11.655 19.766 12.1331C19.6501 12.5967 19.5921 13.0965 19.5921 13.6325V19H17.1148Z" fill="white"/>
<path d="M32.9706 17.5875C32.5939 18.1235 32.0941 18.5219 31.4712 18.7827C30.8482 19.029 30.1529 19.1521 29.385 19.1521C28.7766 19.1521 28.2188 19.0797 27.7118 18.9348C27.2192 18.7899 26.7846 18.5726 26.4079 18.2829C26.0313 17.9786 25.7343 17.6092 25.517 17.1746C25.2997 16.7255 25.191 16.2184 25.191 15.6534C25.191 15.0305 25.3142 14.5017 25.5604 14.0671C25.8067 13.618 26.1399 13.2558 26.56 12.9806C26.9947 12.7053 27.5017 12.5025 28.0812 12.3721C28.6607 12.2272 29.2691 12.1548 29.9066 12.1548H32.8402C32.8402 11.3145 32.6519 10.6626 32.2752 10.199C31.8986 9.73544 31.2394 9.4964 30.2977 9.48192C29.7472 9.48192 29.2691 9.57608 28.8635 9.76442C28.4724 9.95275 28.2116 10.2642 28.0812 10.6988H25.5387C25.6256 10.0904 25.8212 9.57608 26.1254 9.15596C26.4442 8.73583 26.8208 8.38814 27.2554 8.11288C27.7045 7.83762 28.1971 7.64205 28.7331 7.52615C29.2836 7.41025 29.8341 7.3523 30.3847 7.3523C31.0945 7.3523 31.7537 7.44647 32.3622 7.6348C32.9706 7.82314 33.4994 8.14185 33.9485 8.59096C34.4555 9.11249 34.796 9.73544 34.9698 10.4598C35.1437 11.1842 35.2306 11.9737 35.2306 12.8285V19H33.0793L32.9706 17.5875ZM32.8402 13.915H30.4499C30.0297 13.915 29.6096 13.9512 29.1895 14.0236C28.7693 14.0816 28.4072 14.2337 28.1029 14.48C27.8132 14.7118 27.6683 15.0522 27.6683 15.5013C27.6683 16.0518 27.8639 16.472 28.255 16.7617C28.6607 17.037 29.1533 17.1746 29.7327 17.1746C30.1818 17.1746 30.5947 17.1166 30.9714 17.0008C31.3625 16.8849 31.6957 16.6965 31.971 16.4358C32.2463 16.1605 32.4563 15.82 32.6012 15.4144C32.7606 14.9943 32.8402 14.4945 32.8402 13.915Z" fill="white"/>
<path d="M37.8906 23.4548V7.54788H40.2375L40.3679 9.17769C40.817 8.56923 41.3675 8.11288 42.0194 7.80865C42.6714 7.50442 43.374 7.3523 44.1273 7.3523C44.9096 7.3523 45.6122 7.49718 46.2352 7.78692C46.8581 8.06218 47.3869 8.45333 47.8215 8.96038C48.2706 9.46743 48.6038 10.0831 48.8212 10.8075C49.0529 11.5174 49.1688 12.3286 49.1688 13.2413C49.1688 14.0961 49.0602 14.8856 48.8429 15.61C48.6256 16.3343 48.2996 16.9645 47.865 17.5006C47.4449 18.0221 46.9161 18.4277 46.2787 18.7175C45.6557 19.0072 44.9241 19.1521 44.0839 19.1521C43.3595 19.1521 42.6714 19.0434 42.0194 18.8261C41.382 18.5943 40.8315 18.2394 40.3679 17.7613V23.4548H37.8906ZM43.6058 17.0008C44.1418 17.0008 44.6054 16.9066 44.9965 16.7183C45.3877 16.5154 45.7064 16.2474 45.9527 15.9142C46.2135 15.581 46.4018 15.1899 46.5177 14.7408C46.6481 14.2917 46.7133 13.8063 46.7133 13.2848C46.7133 12.7633 46.6481 12.2779 46.5177 11.8288C46.4018 11.3652 46.2135 10.9669 45.9527 10.6336C45.7064 10.3004 45.3805 10.0397 44.9748 9.85134C44.5837 9.66301 44.1128 9.56884 43.5623 9.56884C43.0263 9.56884 42.5627 9.67025 42.1715 9.87307C41.7804 10.0759 41.4472 10.3439 41.1719 10.6771C40.8967 11.0103 40.6866 11.4087 40.5417 11.8723C40.4114 12.3214 40.3462 12.785 40.3462 13.2631C40.3462 14.3206 40.6214 15.2043 41.1719 15.9142C41.7224 16.6241 42.5337 16.9863 43.6058 17.0008Z" fill="white"/>
<path d="M51.4299 19V3.63635H53.9072V9.13422C54.3128 8.52576 54.8343 8.06942 55.4718 7.76519C56.1237 7.46096 56.8046 7.30884 57.5145 7.30884C58.3257 7.30884 59.0066 7.44647 59.5572 7.72173C60.1222 7.99698 60.5785 8.37365 60.9262 8.85173C61.2884 9.31531 61.5419 9.87307 61.6868 10.525C61.8461 11.1769 61.9258 11.894 61.9258 12.6763V19H59.4485V13.0675C59.4485 12.5749 59.4123 12.1186 59.3398 11.6985C59.2674 11.2638 59.137 10.8872 58.9487 10.5685C58.7604 10.2352 58.4923 9.97448 58.1447 9.78615C57.797 9.59781 57.3551 9.50365 56.8191 9.50365C56.3555 9.50365 55.9209 9.62679 55.5152 9.87307C55.1096 10.1049 54.7836 10.4163 54.5373 10.8075C54.3056 11.1986 54.139 11.6188 54.0375 12.0679C53.9506 12.5025 53.9072 12.9299 53.9072 13.35V19H51.4299Z" fill="white"/>
<path d="M65.9572 2.78885C66.4063 2.78885 66.7757 2.92648 67.0655 3.20173C67.3697 3.47699 67.5218 3.85366 67.5218 4.33173C67.5218 4.79532 67.3697 5.16474 67.0655 5.44C66.7757 5.71526 66.4063 5.85288 65.9572 5.85288C65.4791 5.85288 65.0952 5.71526 64.8055 5.44C64.5157 5.16474 64.3709 4.79532 64.3709 4.33173C64.3709 3.85366 64.5157 3.47699 64.8055 3.20173C65.0952 2.92648 65.4791 2.78885 65.9572 2.78885ZM64.6968 19V7.54788H67.1741V19H64.6968Z" fill="white"/>
<path d="M75.0826 19.1521C74.1554 19.1521 73.3514 19.0145 72.6705 18.7392C71.9896 18.4495 71.4173 18.0511 70.9537 17.544C70.5046 17.0225 70.1642 16.4068 69.9324 15.6969C69.7151 14.9725 69.6064 14.1758 69.6064 13.3065C69.6064 12.4373 69.7223 11.6405 69.9541 10.9161C70.2004 10.1918 70.5626 9.56884 71.0406 9.0473C71.5187 8.52576 72.0982 8.11288 72.7791 7.80865C73.46 7.50442 74.2496 7.3523 75.1478 7.3523C76.4661 7.3523 77.5599 7.65654 78.4291 8.265C79.2983 8.85897 79.8488 9.80788 80.0806 11.1117H77.5381C77.4078 10.6047 77.1253 10.2208 76.6906 9.95999C76.256 9.69922 75.7272 9.56884 75.1043 9.56884C74.5538 9.56884 74.083 9.67025 73.6918 9.87307C73.3006 10.0759 72.9819 10.3511 72.7356 10.6988C72.4894 11.0465 72.3083 11.4522 72.1924 11.9158C72.091 12.3649 72.0403 12.8357 72.0403 13.3283C72.0403 13.8353 72.0982 14.3134 72.2141 14.7625C72.33 15.2116 72.5111 15.6027 72.7574 15.9359C73.0037 16.2547 73.3224 16.5154 73.7135 16.7183C74.1047 16.9066 74.5755 17.0008 75.126 17.0008C75.778 17.0008 76.314 16.8559 76.7341 16.5661C77.1687 16.2764 77.444 15.8925 77.5599 15.4144H80.1241C80.0082 16.0663 79.7909 16.6313 79.4722 17.1094C79.1679 17.5875 78.7913 17.9786 78.3422 18.2829C77.8931 18.5871 77.3933 18.8116 76.8428 18.9565C76.2922 19.0869 75.7055 19.1521 75.0826 19.1521Z" fill="white"/>
<path d="M83.0959 19V9.69922H81.2706V7.54788H83.0959V6.20058C83.0959 4.92571 83.3929 3.99128 83.9869 3.39731C84.5954 2.78885 85.566 2.48462 86.8988 2.48462H88.4634V4.63596H87.0509C86.4425 4.63596 86.0368 4.79532 85.834 5.11404C85.6312 5.43276 85.5298 5.8891 85.5298 6.48308V7.54788H88.4634V9.69922H85.5298V19H83.0959Z" fill="white"/>
<path d="M95.1181 7.3523C96.0308 7.3523 96.8349 7.49718 97.5303 7.78692C98.2256 8.07666 98.8124 8.4823 99.2904 9.00384C99.783 9.51089 100.152 10.1266 100.399 10.851C100.645 11.5753 100.768 12.3793 100.768 13.2631C100.768 14.1613 100.645 14.9725 100.399 15.6969C100.167 16.4068 99.812 17.0225 99.3339 17.544C98.8558 18.0656 98.2619 18.464 97.552 18.7392C96.8566 19.0145 96.0453 19.1521 95.1181 19.1521C94.2055 19.1521 93.4014 19.0145 92.706 18.7392C92.0106 18.4495 91.4239 18.0511 90.9458 17.544C90.4822 17.0225 90.1273 16.3995 89.881 15.6752C89.6492 14.9508 89.5333 14.1468 89.5333 13.2631C89.5333 12.3793 89.6492 11.5753 89.881 10.851C90.1273 10.1266 90.4895 9.51089 90.9676 9.00384C91.4456 8.4823 92.0324 8.07666 92.7278 7.78692C93.4231 7.49718 94.2199 7.3523 95.1181 7.3523ZM95.1181 17.0008C95.6831 17.0008 96.1612 16.9066 96.5524 16.7183C96.958 16.5154 97.284 16.2474 97.5303 15.9142C97.791 15.581 97.9794 15.1899 98.0953 14.7408C98.2256 14.2917 98.2908 13.8063 98.2908 13.2848C98.2908 12.7633 98.2256 12.2779 98.0953 11.8288C97.9794 11.3652 97.791 10.9669 97.5303 10.6336C97.284 10.3004 96.958 10.0397 96.5524 9.85134C96.1612 9.66301 95.6831 9.56884 95.1181 9.56884C94.5676 9.56884 94.0968 9.66301 93.7056 9.85134C93.3145 10.0397 92.9885 10.3004 92.7278 10.6336C92.467 10.9669 92.2714 11.3652 92.141 11.8288C92.0251 12.2779 91.9672 12.7633 91.9672 13.2848C91.9672 13.8063 92.0251 14.2917 92.141 14.7408C92.2714 15.1899 92.4598 15.581 92.706 15.9142C92.9668 16.2474 93.2928 16.5154 93.6839 16.7183C94.0896 16.9066 94.5676 17.0008 95.1181 17.0008Z" fill="white"/>
<path d="M103.019 19V3.63635H105.496V19H103.019Z" fill="white"/>
<path d="M109.61 2.78885C110.059 2.78885 110.428 2.92648 110.718 3.20173C111.022 3.47699 111.174 3.85366 111.174 4.33173C111.174 4.79532 111.022 5.16474 110.718 5.44C110.428 5.71526 110.059 5.85288 109.61 5.85288C109.132 5.85288 108.748 5.71526 108.458 5.44C108.168 5.16474 108.023 4.79532 108.023 4.33173C108.023 3.85366 108.168 3.47699 108.458 3.20173C108.748 2.92648 109.132 2.78885 109.61 2.78885ZM108.349 19V7.54788H110.827V19H108.349Z" fill="white"/>
<path d="M118.844 7.3523C119.756 7.3523 120.56 7.49718 121.256 7.78692C121.951 8.07666 122.538 8.4823 123.016 9.00384C123.509 9.51089 123.878 10.1266 124.124 10.851C124.371 11.5753 124.494 12.3793 124.494 13.2631C124.494 14.1613 124.371 14.9725 124.124 15.6969C123.892 16.4068 123.538 17.0225 123.059 17.544C122.581 18.0656 121.987 18.464 121.278 18.7392C120.582 19.0145 119.771 19.1521 118.844 19.1521C117.931 19.1521 117.127 19.0145 116.432 18.7392C115.736 18.4495 115.149 18.0511 114.671 17.544C114.208 17.0225 113.853 16.3995 113.607 15.6752C113.375 14.9508 113.259 14.1468 113.259 13.2631C113.259 12.3793 113.375 11.5753 113.607 10.851C113.853 10.1266 114.215 9.51089 114.693 9.00384C115.171 8.4823 115.758 8.07666 116.453 7.78692C117.149 7.49718 117.945 7.3523 118.844 7.3523ZM118.844 17.0008C119.409 17.0008 119.887 16.9066 120.278 16.7183C120.684 16.5154 121.01 16.2474 121.256 15.9142C121.517 15.581 121.705 15.1899 121.821 14.7408C121.951 14.2917 122.016 13.8063 122.016 13.2848C122.016 12.7633 121.951 12.2779 121.821 11.8288C121.705 11.3652 121.517 10.9669 121.256 10.6336C121.01 10.3004 120.684 10.0397 120.278 9.85134C119.887 9.66301 119.409 9.56884 118.844 9.56884C118.293 9.56884 117.822 9.66301 117.431 9.85134C117.04 10.0397 116.714 10.3004 116.453 10.6336C116.193 10.9669 115.997 11.3652 115.867 11.8288C115.751 12.2779 115.693 12.7633 115.693 13.2848C115.693 13.8063 115.751 14.2917 115.867 14.7408C115.997 15.1899 116.185 15.581 116.432 15.9142C116.692 16.2474 117.018 16.5154 117.409 16.7183C117.815 16.9066 118.293 17.0008 118.844 17.0008Z" fill="white"/>
</svg>