<svg width="580" height="587" viewBox="0 0 580 587" fill="none" xmlns="http://www.w3.org/2000/svg">
<rect x="1.50143" y="392.501" width="380.363" height="192.183" rx="96.0916" stroke="#101010" stroke-width="3.00286"/>
<ellipse cx="99.0002" cy="489" rx="78" ry="79" fill="#F8F8F8"/>
<path d="M246.378 391.435L44.2503 195L44.2503 391.435L246.378 391.435Z" fill="#F8F8F8"/>
<circle r="97.5053" transform="matrix(-1 0 0 1 287.505 97.5053)" fill="#FF7B43"/>
<path d="M254.418 133.749L323.242 64.9258" stroke="#F8F8F8" stroke-width="3.00286" stroke-linecap="round" stroke-linejoin="round"/>
<path d="M258.355 64.9258L323.242 64.9258L323.242 129.813" stroke="#F8F8F8" stroke-width="3.00286" stroke-linecap="round" stroke-linejoin="round"/>
<circle r="96.7156" transform="matrix(-1 0 0 1 286.605 293.217)" fill="#101010" stroke="#101010" stroke-width="3.00286"/>
<circle r="42.2302" transform="matrix(-1 0 0 1 286.605 293.217)" stroke="white" stroke-width="3.00286"/>
<path d="M383.998 586L579.998 390H383.998L383.998 586Z" fill="#F8F8F8"/>
<rect x="1.5" y="1.5" width="387" height="192" rx="96" transform="matrix(-4.37114e-08 1 1 4.37114e-08 385 6.55671e-08)" stroke="#F8F8F8" stroke-width="3"/>
<mask id="path-11-inside-1_2737_23274" fill="white">
<path d="M385 96.7013C385 109.4 387.519 121.975 392.415 133.707C397.31 145.44 404.486 156.1 413.531 165.079C422.577 174.059 433.315 181.182 445.134 186.042C456.953 190.901 469.62 193.403 482.412 193.403C495.204 193.403 507.872 190.901 519.69 186.042C531.509 181.182 542.247 174.059 551.293 165.079C560.339 156.1 567.514 145.44 572.409 133.707C577.305 121.975 579.824 109.4 579.824 96.7013L482.412 96.7013L385 96.7013Z"/>
</mask>
<path d="M385 96.7013C385 109.4 387.519 121.975 392.415 133.707C397.31 145.44 404.486 156.1 413.531 165.079C422.577 174.059 433.315 181.182 445.134 186.042C456.953 190.901 469.62 193.403 482.412 193.403C495.204 193.403 507.872 190.901 519.69 186.042C531.509 181.182 542.247 174.059 551.293 165.079C560.339 156.1 567.514 145.44 572.409 133.707C577.305 121.975 579.824 109.4 579.824 96.7013L482.412 96.7013L385 96.7013Z" stroke="#F8F8F8" stroke-width="6" mask="url(#path-11-inside-1_2737_23274)"/>
</svg>